<?xml version="1.0" standalone="no"?>
<!DOCTYPE svg PUBLIC "-//W3C//DTD SVG 20010904//EN"
 "http://www.w3.org/TR/2001/REC-SVG-20010904/DTD/svg10.dtd">
<svg version="1.0" xmlns="http://www.w3.org/2000/svg"
 width="817.000000pt" height="1313.000000pt" viewBox="0 0 817.000000 1313.000000"
 preserveAspectRatio="xMidYMid meet">

<g transform="translate(0.000000,1313.000000) scale(0.100000,-0.100000)"
fill="#000000" stroke="none">
<path d="M4713 7039 c-172 -61 -300 -68 -878 -45 -227 9 -388 11 -485 5 -80
-4 -222 -11 -316 -15 l-171 -7 -7 -411 c-11 -641 -29 -984 -53 -993 -7 -3
-131 50 -276 117 -144 68 -289 132 -322 142 -33 11 -105 22 -160 25 -89 5
-106 3 -152 -16 -60 -26 -82 -48 -117 -115 -58 -109 -28 -206 109 -357 52 -57
95 -107 95 -110 0 -4 39 -40 87 -80 74 -64 149 -145 313 -342 35 -42 135 -150
220 -238 27 -27 68 -92 103 -158 l58 -113 -12 -271 c-6 -150 -9 -316 -5 -369
7 -120 -14 -287 -79 -603 -53 -261 -84 -379 -158 -620 -31 -99 -67 -227 -81
-285 -34 -147 -80 -270 -183 -490 -72 -157 -104 -213 -181 -317 -51 -69 -121
-174 -156 -232 -91 -151 -199 -299 -304 -420 -50 -57 -97 -120 -103 -139 -18
-56 -7 -136 27 -185 36 -51 138 -107 196 -107 21 0 138 20 260 45 215 43 358
60 888 106 167 14 1107 3 1700 -21 505 -19 930 -27 1325 -23 242 3 271 9 333
77 41 44 62 96 62 151 -1 71 -70 160 -143 184 -29 10 -43 26 -86 100 -81 140
-252 363 -356 466 -167 163 -239 277 -376 595 -37 85 -81 187 -99 225 -89 196
-173 505 -184 680 -14 204 -66 544 -120 780 -25 107 -54 325 -75 551 -6 61
-22 159 -37 218 l-27 107 28 727 c19 509 26 781 21 907 -4 99 -8 333 -10 520
-3 314 -8 387 -25 384 -3 -1 -43 -14 -88 -30z"/>
</g>
</svg>
